<svg width="20" height="20" viewBox="0 0 20 20" fill="none" xmlns="http://www.w3.org/2000/svg">
<path opacity="0.3" d="M10.8337 4.16671C10.8337 3.70647 10.4606 3.33337 10.0003 3.33337C9.54009 3.33337 9.16699 3.70647 9.16699 4.16671V10.8334C9.16699 11.2936 9.54009 11.6667 10.0003 11.6667C10.4606 11.6667 10.8337 11.2936 10.8337 10.8334V4.16671Z" fill="black"/>
<path d="M5.58958 10.244C5.26414 9.9186 4.73651 9.9186 4.41107 10.244C4.08563 10.5695 4.08563 11.0971 4.41107 11.4225L9.41107 16.4225C9.72655 16.738 10.2345 16.7491 10.5634 16.4476L15.5634 11.8643C15.9027 11.5533 15.9256 11.0261 15.6146 10.6869C15.3036 10.3476 14.7765 10.3247 14.4372 10.6357L10.0254 14.6798L5.58958 10.244Z" fill="black"/>
</svg>
