<svg width="20" height="20" viewBox="0 0 20 20" fill="none" xmlns="http://www.w3.org/2000/svg">
<path opacity="0.3" d="M15.8337 10.8334C16.2939 10.8334 16.667 10.4603 16.667 10.0001C16.667 9.53984 16.2939 9.16675 15.8337 9.16675H9.16699C8.70676 9.16675 8.33366 9.53984 8.33366 10.0001C8.33366 10.4603 8.70676 10.8334 9.16699 10.8334H15.8337Z" fill="black"/>
<path d="M9.7556 5.58934C10.081 5.2639 10.081 4.73626 9.7556 4.41083C9.43016 4.08539 8.90252 4.08539 8.57709 4.41083L3.57709 9.41083C3.2616 9.72631 3.25057 10.2343 3.55205 10.5632L8.13538 15.5632C8.44637 15.9025 8.97351 15.9254 9.31278 15.6144C9.65204 15.3034 9.67496 14.7762 9.36397 14.437L5.31979 10.0251L9.7556 5.58934Z" fill="black"/>
</svg>
