<svg width="20" height="20" viewBox="0 0 20 20" fill="none" xmlns="http://www.w3.org/2000/svg">
<path opacity="0.3" fill-rule="evenodd" clip-rule="evenodd" d="M17.0051 5.6134C17.3061 5.74715 17.5 6.04559 17.5 6.37491V13.6763C17.5 13.979 17.3359 14.2578 17.0714 14.4048L10.4047 18.1085C10.153 18.2483 9.84698 18.2483 9.5953 18.1085L2.92863 14.4048C2.66408 14.2578 2.5 13.979 2.5 13.6763L2.5 6.37491C2.5 6.04559 2.69394 5.74715 2.99488 5.6134L9.66155 2.65044C9.87702 2.55467 10.123 2.55467 10.3384 2.65044L17.0051 5.6134Z" fill="black"/>
<path fill-rule="evenodd" clip-rule="evenodd" d="M12.4723 3.52026L6.33301 6.93098V10.7547L7.99967 11.588V7.91165L14.3789 4.36764L12.4723 3.52026Z" fill="black"/>
</svg>
