<svg width="18" height="18" viewBox="0 0 18 18" fill="none" xmlns="http://www.w3.org/2000/svg">
<path opacity="0.3" d="M9 3.40126L5.82618 7.18419C5.56101 7.50026 5.08809 7.54296 4.76988 7.27957C4.45167 7.01619 4.40868 6.54645 4.67385 6.23039L8.42384 1.76072C8.72368 1.40333 9.27632 1.40333 9.57616 1.76072L13.3261 6.23039C13.5913 6.54645 13.5483 7.01619 13.2301 7.27957C12.9119 7.54296 12.439 7.50026 12.1738 7.18419L9 3.40126Z" fill="black"/>
<path fill-rule="evenodd" clip-rule="evenodd" d="M2.46111 6.70459H15.5399C15.9542 6.70459 16.2899 7.03816 16.2899 7.44964C16.2899 7.51056 16.2824 7.57124 16.2676 7.63034L14.6766 13.9521C14.4262 14.9472 13.5262 15.6452 12.4938 15.6452H5.50728C4.47483 15.6452 3.57487 14.9472 3.32446 13.9521L1.73351 7.63034C1.63305 7.23115 1.87737 6.82663 2.27921 6.72684C2.3387 6.71206 2.39979 6.70459 2.46111 6.70459ZM9.00053 8.93974C8.58632 8.93974 8.25053 9.27331 8.25053 9.68479V12.665C8.25053 13.0765 8.58632 13.41 9.00053 13.41C9.41475 13.41 9.75053 13.0765 9.75053 12.665V9.68479C9.75053 9.27331 9.41475 8.93974 9.00053 8.93974ZM5.22407 9.04129C4.82398 9.14779 4.58654 9.55632 4.69374 9.95378L5.4702 12.8324C5.57741 13.2299 5.98866 13.4658 6.38876 13.3593C6.78886 13.2528 7.0263 12.8442 6.91909 12.4468L6.14263 9.56812C6.03543 9.17066 5.62417 8.93479 5.22407 9.04129ZM12.777 9.04129C12.3769 8.93479 11.9656 9.17066 11.8584 9.56812L11.082 12.4468C10.9748 12.8442 11.2122 13.2528 11.6123 13.3593C12.0124 13.4658 12.4237 13.2299 12.5309 12.8324L13.3073 9.95378C13.4145 9.55632 13.1771 9.14779 12.777 9.04129Z" fill="black"/>
</svg>
