<svg width="18" height="18" viewBox="0 0 18 18" fill="none" xmlns="http://www.w3.org/2000/svg">
<path opacity="0.3" d="M9.00002 3.42154L5.82618 7.23014C5.56101 7.54835 5.08809 7.59134 4.76988 7.32617C4.45167 7.06099 4.40868 6.58807 4.67385 6.26986L8.42385 1.76986C8.7237 1.41005 9.27634 1.41005 9.57618 1.76986L13.3262 6.26986C13.5914 6.58807 13.5484 7.06099 13.2302 7.32617C12.9119 7.59134 12.439 7.54835 12.1738 7.23014L9.00002 3.42154Z" fill="white"/>
<path fill-rule="evenodd" clip-rule="evenodd" d="M2.46014 6.75H15.539C15.9532 6.75 16.289 7.08579 16.289 7.5C16.289 7.56132 16.2815 7.62241 16.2666 7.6819L14.6756 14.0457C14.4252 15.0473 13.5253 15.75 12.4928 15.75H5.5063C4.47385 15.75 3.57389 15.0473 3.32348 14.0457L1.73253 7.6819C1.63207 7.28006 1.87639 6.87285 2.27824 6.77239C2.33773 6.75752 2.39882 6.75 2.46014 6.75ZM8.99956 9C8.58534 9 8.24956 9.33579 8.24956 9.75V12.75C8.24956 13.1642 8.58534 13.5 8.99956 13.5C9.41377 13.5 9.74956 13.1642 9.74956 12.75V9.75C9.74956 9.33579 9.41377 9 8.99956 9ZM5.2231 9.10222C4.823 9.20943 4.58556 9.62068 4.69277 10.0208L5.46923 12.9186C5.57643 13.3187 5.98769 13.5561 6.38778 13.4489C6.78788 13.3417 7.02532 12.9304 6.91812 12.5303L6.14166 9.63255C6.03445 9.23245 5.6232 8.99502 5.2231 9.10222ZM12.776 9.10222C12.3759 8.99502 11.9647 9.23245 11.8575 9.63255L11.081 12.5303C10.9738 12.9304 11.2112 13.3417 11.6113 13.4489C12.0114 13.5561 12.4227 13.3187 12.5299 12.9186L13.3063 10.0208C13.4136 9.62068 13.1761 9.20943 12.776 9.10222Z" fill="white"/>
</svg>
