<svg width="20" height="20" viewBox="0 0 20 20" fill="none" xmlns="http://www.w3.org/2000/svg">
<path opacity="0.3" fill-rule="evenodd" clip-rule="evenodd" d="M10.8333 11.25H9.16665V16.1667L6.14567 17.3751C5.95702 17.4505 5.83331 17.6332 5.83331 17.8364C5.83331 18.1109 6.05579 18.3333 6.33022 18.3333H13.6697C13.9442 18.3333 14.1666 18.1109 14.1666 17.8364C14.1666 17.6332 14.0429 17.4505 13.8543 17.3751L10.8333 16.1667V11.25Z" fill="white"/>
<path fill-rule="evenodd" clip-rule="evenodd" d="M8.69855 11.3738C9.27356 12.0926 10.3224 12.2091 11.0412 11.6341C11.1373 11.5572 11.2246 11.4699 11.3014 11.3738L16.7758 4.53087C17.2071 3.99179 17.1197 3.20518 16.5806 2.77391C16.359 2.5966 16.0836 2.5 15.7997 2.5H4.20026C3.5099 2.5 2.95026 3.05964 2.95026 3.75C2.95026 4.03384 3.04686 4.30923 3.22417 4.53087L8.69855 11.3738ZM7.08333 6.67691L5.06718 4.16667H14.9328L12.9167 6.67691H7.08333Z" fill="white"/>
</svg>
