<svg width="20" height="20" viewBox="0 0 20 20" fill="none" xmlns="http://www.w3.org/2000/svg">
<path opacity="0.3" fill-rule="evenodd" clip-rule="evenodd" d="M10.8333 11.25H9.16659V16.1667L6.14561 17.3751C5.95696 17.4505 5.83325 17.6332 5.83325 17.8364C5.83325 18.1109 6.05573 18.3333 6.33016 18.3333H13.6697C13.9441 18.3333 14.1666 18.1109 14.1666 17.8364C14.1666 17.6332 14.0429 17.4505 13.8542 17.3751L10.8333 16.1667V11.25Z" fill="white"/>
<path d="M11.0411 11.6341C10.3223 12.2091 9.2735 12.0926 8.69849 11.3738L3.22411 4.53087C3.0468 4.30923 2.9502 4.03384 2.9502 3.75C2.9502 3.05964 3.50984 2.5 4.2002 2.5H15.7997C16.0835 2.5 16.3589 2.5966 16.5805 2.77391C17.1196 3.20518 17.207 3.99179 16.7758 4.53087L11.3014 11.3738C11.2245 11.4699 11.1372 11.5572 11.0411 11.6341Z" fill="white"/>
</svg>
