<svg width="20" height="20" viewBox="0 0 20 20" fill="none" xmlns="http://www.w3.org/2000/svg">
<path opacity="0.3" fill-rule="evenodd" clip-rule="evenodd" d="M3.33333 13.3333H4.16667C4.6269 13.3333 5 13.7064 5 14.1667C5 14.6269 4.6269 15 4.16667 15H3.33333C2.8731 15 2.5 14.6269 2.5 14.1667C2.5 13.7064 2.8731 13.3333 3.33333 13.3333ZM0.833333 9.16667H4.16667C4.6269 9.16667 5 9.53976 5 10C5 10.4602 4.6269 10.8333 4.16667 10.8333H0.833333C0.373096 10.8333 0 10.4602 0 10C0 9.53976 0.373096 9.16667 0.833333 9.16667ZM2.5 5H4.16667C4.6269 5 5 5.3731 5 5.83333C5 6.29357 4.6269 6.66667 4.16667 6.66667H2.5C2.03976 6.66667 1.66667 6.29357 1.66667 5.83333C1.66667 5.3731 2.03976 5 2.5 5Z" fill="#C0A756"/>
<path fill-rule="evenodd" clip-rule="evenodd" d="M8.33341 5H18.3334C19.2539 5 20.0001 5.74619 20.0001 6.66667V13.3333C20.0001 14.2538 19.2539 15 18.3334 15H8.33341C7.41294 15 6.66675 14.2538 6.66675 13.3333V6.66667C6.66675 5.74619 7.41294 5 8.33341 5ZM17.5709 6.72653L13.3334 8.93215L9.09596 6.72653C8.84445 6.59561 8.53077 6.68658 8.39534 6.92971C8.25991 7.17283 8.35401 7.47606 8.60553 7.60697L13.0882 9.94024C13.2413 10.0199 13.4255 10.0199 13.5786 9.94024L18.0613 7.60697C18.3128 7.47606 18.4069 7.17283 18.2715 6.92971C18.1361 6.68658 17.8224 6.59561 17.5709 6.72653Z" fill="#C99559"/>
</svg>
