<svg width="20" height="20" viewBox="0 0 20 20" fill="none" xmlns="http://www.w3.org/2000/svg">
<path opacity="0.3" d="M10.0003 9.16667C8.15938 9.16667 6.66699 7.67428 6.66699 5.83333C6.66699 3.99238 8.15938 2.5 10.0003 2.5C11.8413 2.5 13.3337 3.99238 13.3337 5.83333C13.3337 7.67428 11.8413 9.16667 10.0003 9.16667Z" fill="black"/>
<path d="M2.50054 15.9993C2.82355 12.0221 6.05159 10 9.98612 10C13.976 10 17.2541 11.911 17.4983 16C17.508 16.1629 17.4983 16.6667 16.8722 16.6667C13.7843 16.6667 9.1956 16.6667 3.10625 16.6667C2.89726 16.6667 2.48295 16.216 2.50054 15.9993Z" fill="black"/>
</svg>
