<svg width="20" height="20" viewBox="0 0 20 20" fill="none" xmlns="http://www.w3.org/2000/svg">
<path opacity="0.3" d="M10 3.80179L6.47354 8.03357C6.1789 8.38713 5.65343 8.4349 5.29987 8.14027C4.9463 7.84563 4.89853 7.32016 5.19317 6.96659L9.35984 1.96659C9.693 1.5668 10.307 1.5668 10.6402 1.96659L14.8069 6.96659C15.1015 7.32016 15.0537 7.84563 14.7002 8.14027C14.3466 8.4349 13.8211 8.38713 13.5265 8.03357L10 3.80179Z" fill="black"/>
<path fill-rule="evenodd" clip-rule="evenodd" d="M2.73392 7.5H17.266C17.7262 7.5 18.0993 7.8731 18.0993 8.33333C18.0993 8.40147 18.0909 8.46935 18.0744 8.53545L16.3067 15.6063C16.0285 16.7193 15.0285 17.5 13.8813 17.5H6.11855C4.97138 17.5 3.97142 16.7193 3.69319 15.6063L1.92547 8.53545C1.81385 8.08895 2.08531 7.63651 2.53181 7.52488C2.59791 7.50836 2.66579 7.5 2.73392 7.5ZM9.99994 10C9.5397 10 9.16661 10.3731 9.16661 10.8333V14.1667C9.16661 14.6269 9.5397 15 9.99994 15C10.4602 15 10.8333 14.6269 10.8333 14.1667V10.8333C10.8333 10.3731 10.4602 10 9.99994 10ZM5.80388 10.1136C5.35932 10.2327 5.0955 10.6896 5.21462 11.1342L6.07735 14.354C6.19647 14.7985 6.65342 15.0623 7.09797 14.9432C7.54253 14.8241 7.80635 14.3671 7.68723 13.9226L6.8245 10.7028C6.70538 10.2583 6.24843 9.99446 5.80388 10.1136ZM14.196 10.1136C13.7514 9.99446 13.2945 10.2583 13.1754 10.7028L12.3127 13.9226C12.1935 14.3671 12.4574 14.8241 12.9019 14.9432C13.3465 15.0623 13.8034 14.7985 13.9225 14.354L14.7853 11.1342C14.9044 10.6896 14.6406 10.2327 14.196 10.1136Z" fill="black"/>
</svg>
