<svg width="20" height="20" viewBox="0 0 20 20" fill="none" xmlns="http://www.w3.org/2000/svg">
<path opacity="0.3" d="M11.6671 5.83325C11.6671 6.29349 12.0401 6.66658 12.5001 6.66658C12.9601 6.66658 13.3331 6.29349 13.3331 5.83325V4.99992C13.3331 3.15897 11.8413 1.66658 10.0012 1.66658H5.00409C3.16394 1.66658 1.6722 3.15897 1.6722 4.99992V14.9999C1.6722 16.8409 3.16394 18.3333 5.00409 18.3333H10.007C11.8471 18.3333 13.3389 16.8409 13.3389 14.9999V14.1666C13.3389 13.7063 12.9659 13.3332 12.5059 13.3332C12.0459 13.3332 11.6729 13.7063 11.6729 14.1666V14.9999C11.6729 15.9204 10.9271 16.6666 10.007 16.6666H5.00409C4.08401 16.6666 3.33814 15.9204 3.33814 14.9999V4.99992C3.33814 4.07944 4.08401 3.33325 5.00409 3.33325H10.0012C10.9213 3.33325 11.6671 4.07944 11.6671 4.99992V5.83325Z" fill="black"/>
<rect opacity="0.3" x="16.667" y="9.16675" width="1.66667" height="10" rx="0.833333" transform="rotate(90 16.667 9.16675)" fill="black"/>
<path d="M14.4111 8.08917C14.0856 7.76374 14.0856 7.2361 14.4111 6.91066C14.7365 6.58522 15.2641 6.58522 15.5896 6.91066L18.0896 9.41066C18.415 9.7361 18.415 10.2637 18.0896 10.5892L15.5896 13.0892C15.2641 13.4146 14.7365 13.4146 14.4111 13.0892C14.0856 12.7637 14.0856 12.2361 14.4111 11.9107L16.3218 9.99992L14.4111 8.08917Z" fill="black"/>
</svg>
