<svg width="20" height="20" viewBox="0 0 20 20" fill="none" xmlns="http://www.w3.org/2000/svg">
<path opacity="0.3" fill-rule="evenodd" clip-rule="evenodd" d="M17.083 11.6667C17.7734 11.6667 18.333 11.1071 18.333 10.4167C18.333 9.72639 17.7734 9.16675 17.083 9.16675C16.3927 9.16675 15.833 9.72639 15.833 10.4167C15.833 11.1071 16.3927 11.6667 17.083 11.6667Z" fill="black"/>
<rect opacity="0.3" x="2.00098" y="4.54053" width="15" height="5.83333" rx="1" transform="rotate(-15 2.00098 4.54053)" fill="black"/>
<path fill-rule="evenodd" clip-rule="evenodd" d="M3.66699 3.33325C2.56242 3.33325 1.66699 4.22868 1.66699 5.33325V14.6666C1.66699 15.7712 2.56242 16.6666 3.66699 16.6666H16.3337C17.4382 16.6666 18.3337 15.7712 18.3337 14.6666V13.0526C17.9548 13.2325 17.531 13.3333 17.0837 13.3333C15.4728 13.3333 14.167 12.0274 14.167 10.4166C14.167 8.80575 15.4728 7.49992 17.0837 7.49992C17.531 7.49992 17.9548 7.60062 18.3337 7.7806V5.33325C18.3337 4.22868 17.4382 3.33325 16.3337 3.33325H3.66699Z" fill="black"/>
</svg>
